<svg width="1440" height="888" viewBox="0 0 1440 888" fill="none" xmlns="http://www.w3.org/2000/svg">
<g clip-path="url(#clip0_205_10)">
<rect width="1440" height="888" fill="white"/>
<g style="mix-blend-mode:multiply">
<path fill-rule="evenodd" clip-rule="evenodd" d="M897.602 952.039L931.851 941.962C966.1 931.885 1034.6 911.731 1095.24 881.361C1155.89 850.992 1208.68 810.407 1245.77 749.392C1282.85 688.378 1304.23 606.933 1349.17 556.133C1394.11 505.334 1462.61 485.179 1538.96 475.24C1615.31 465.3 1699.51 465.576 1783.72 465.852C1867.92 466.128 1952.13 466.403 1981.36 395.174C2010.59 323.944 1984.85 181.209 2006.24 99.7638C2027.62 18.319 2096.11 -1.83543 2130.36 -11.9126L1708.47 465.877L1625.91 713.06L1557.75 878.173C1531.36 898.466 2435.97 549.503 2383.18 590.087C2330.39 630.672 2277.59 671.256 2224.8 711.841C2172.01 752.425 2119.22 793.01 2066.42 833.594C2013.63 874.179 1960.84 914.763 1908.05 955.348C1855.26 995.933 1802.46 1036.52 1749.67 1077.1C1696.88 1117.69 1644.09 1158.27 1591.3 1198.86C1538.5 1239.44 1485.71 1280.02 1432.92 1320.61C1380.13 1361.19 1327.34 1401.78 1300.94 1422.07L1274.54 1442.36L897.602 952.039Z" fill="#435FC2" fill-opacity="0.75"/>
</g>
<path fill-rule="evenodd" clip-rule="evenodd" d="M-8.12737 891.854L10.1164 822.876C28.2112 754.944 64.6987 616.988 59.7429 474.201C54.7871 331.415 8.68594 181.703 -12.7876 36.5658C-34.2612 -108.572 -30.8091 -251.23 -29.2321 -321.512L-27.5061 -392.841L-176.166 -414L-186.151 -343.846C-195.987 -274.74 -215.956 -134.432 -235.777 4.82788C-255.598 144.088 -275.568 284.396 -295.389 423.656C-315.209 562.916 -335.179 703.223 -345.015 772.33L-355 842.484L-8.12737 891.854Z" fill="#47D7AC" fill-opacity="0.75"/>
<path fill-rule="evenodd" clip-rule="evenodd" d="M1447.74 323.606L1434.12 307.169C1420.64 291.006 1393.39 258.131 1383.68 215.915C1373.97 173.7 1381.51 121.595 1378.76 75.534C1376.02 29.4726 1362.68 -11.094 1356.16 -31.1032L1349.49 -51.3865L1412.12 -86L1422.27 -67.6397C1432.26 -49.5534 1452.56 -12.8328 1472.7 23.6138C1492.85 60.0604 1513.14 96.7811 1533.29 133.228C1553.43 169.674 1573.73 206.395 1583.72 224.481L1593.87 242.841L1447.74 323.606Z" fill="#FE5000" fill-opacity="0.75"/>
</g>
<defs>
<clipPath id="clip0_205_10">
<rect width="1440" height="888" fill="white"/>
</clipPath>
</defs>
</svg>
