<svg width="30" height="30" viewBox="0 0 30 30" fill="none" xmlns="http://www.w3.org/2000/svg">
<path d="M14.8741 15.175C17.4808 15.175 19.5939 13.0169 19.5939 10.3548C19.5939 7.69267 17.4808 5.53459 14.8741 5.53459C12.2674 5.53459 10.1543 7.69267 10.1543 10.3548C10.1543 13.0169 12.2674 15.175 14.8741 15.175Z" fill="white"/>
<path d="M24.3128 23.6106V24.8157C24.3128 25.1353 24.1884 25.4418 23.9672 25.6678C23.7459 25.8938 23.4458 26.0207 23.1328 26.0207H6.61354C6.3006 26.0207 6.00048 25.8938 5.77919 25.6678C5.55791 25.4418 5.43359 25.1353 5.43359 24.8157V23.6106C5.43359 21.693 6.17949 19.854 7.50719 18.498C8.83489 17.1421 10.6356 16.3803 12.5133 16.3803H17.2331C19.1107 16.3803 20.9115 17.1421 22.2392 18.498C23.5669 19.854 24.3128 21.693 24.3128 23.6106Z" fill="white"/>
</svg>
